# xmcd
#
# Track frame offsets:
#	150
#	15140
#	28990
#	41422
#	59018
#	72925
#	87486
#	101140
#	112610
#	126991
#	140810
#	161237
#	174683
#
# Disc length: 2520 seconds
#
# Revision: 1
# Processed by: cddbd v1.5.2PL0 Copyright (c) Steve Scherf et al.
# Submitted via: audiograbber 1.83.01
#
DISCID=b809d60d
DTITLE=Rhonda Vincent - The Storm Still Rages
DYEAR=2001
DGENRE=Bluegrass
TTITLE0=Cry Of The Whippoorwill
TTITLE1=Is The Grass Any Bluer
TTITLE2=Don't Lie
TTITLE3=Drivin' Nails In My Coffin
TTITLE4=I'm Not Over You
TTITLE5=Bluegrass Express
TTITLE6=Just Somone I Used To Know
TTITLE7=On Solid Ground
TTITLE8=Each Season Changes You
TTITLE9=My Sweet Love Ain't Around
TTITLE10=You Don't Love God If You Don't Love Your Neighbor
TTITLE11=When The Angels Sing
TTITLE12=The Martha White Theme
EXTD=
EXTT0=
EXTT1=
EXTT2=
EXTT3=
EXTT4=
EXTT5=
EXTT6=
EXTT7=
EXTT8=
EXTT9=
EXTT10=
EXTT11=
EXTT12=
PLAYORDER=
